# xmcd
#
# Track frame offsets: 
#        150
#        71445
#        135667
#        219510
#        251857
#        277765
#        310110
#
# Disc length: 4633 seconds
#
# Revision: 0
# Processed by: cddbd v1.5.2PL0 Copyright (c) Steve Scherf et al.
# Submitted via: ExactAudioCopy v0.95a5
#
DISCID=62121707
DTITLE=George Gershwin - Rhapsody in Blue
DYEAR=2001
DGENRE=Blues
TTITLE0=Rhapsody in blue
TTITLE1=Second rhapsody for orchestra with piano
TTITLE2=An american in Paris
TTITLE3=Strike up the band overture
TTITLE4=Overture to girl crazy
TTITLE5=Oh Kay overture
TTITLE6=Let Em eat cake overture
EXTD=
EXTT0=
EXTT1=
EXTT2=
EXTT3=
EXTT4=
EXTT5=
EXTT6=
PLAYORDER=
